HIERARCHY
ROOT pelvis
{
  OFFSET 0 100 0
  CHANNELS 6 Xposition Yposition Zposition Zrotation Xrotation Yrotation
  JOINT pelvis_right_femur
  {
    OFFSET -10.78128 -3.44521 -0.5502486
    CHANNELS 3 Zrotation Xrotation Yrotation
    JOINT right_femur_tibia
    {
      OFFSET -0.8047443 -44.0398 -0.1307829
      CHANNELS 3 Zrotation Xrotation Yrotation
      JOINT right_tibia_foot
      {
        OFFSET 3.006224 -47.83518 -5
        CHANNELS 3 Zrotation Xrotation Yrotation
        End Site
        {
          OFFSET 0 -5 15
        }
      }
    }
  }
  JOINT pelvis_left_femur
  {
    OFFSET 10.78128 -3.44521 -0.5502486
    CHANNELS 3 Zrotation Xrotation Yrotation
    JOINT left_femur_tibia
    {
      OFFSET 0.8047443 -44.0398 -0.1307829
      CHANNELS 3 Zrotation Xrotation Yrotation
      JOINT left_tibia_foot
      {
        OFFSET -4.370144 -48.10324 -4.275266
        CHANNELS 3 Zrotation Xrotation Yrotation
        End Site
        {
          OFFSET 0 -5 15
        }
      }
    }
  }
  JOINT pelvis_spine1
  {
    OFFSET 0 6.468898 -3.129235
    CHANNELS 3 Zrotation Xrotation Yrotation
    JOINT spine1
    {
      OFFSET 0 23.15396 4.99043
      CHANNELS 3 Zrotation Xrotation Yrotation
      JOINT spine2
      {
        OFFSET 0 20.79997 -5.064912
        CHANNELS 3 Zrotation Xrotation Yrotation
        JOINT neck
        {
          OFFSET 0 14.38658 9.616178
          CHANNELS 3 Zrotation Xrotation Yrotation
          End Site
          {
            OFFSET 0 20 0
          }
        }
      }
      JOINT right_manubrium
      {
        OFFSET -5.722621 16.35077 3.967754
        CHANNELS 3 Zrotation Xrotation Yrotation
        JOINT right_clavicle
        {
          OFFSET -13.16364 1.694482 -4.693211
          CHANNELS 3 Zrotation Xrotation Yrotation
          JOINT right_humerus
          {
            OFFSET -28.5034 -0.3100689 -2.792744
            CHANNELS 3 Zrotation Xrotation Yrotation
            JOINT right_radius
            {
              OFFSET -25.15693 0.02248979 -1.271978
              CHANNELS 3 Zrotation Xrotation Yrotation
              End Site
              {
                OFFSET -15 0 0
              }
            }
          }
        }
      }
      JOINT left_manubrium
      {
        OFFSET 5.722621 16.35077 3.967754
        CHANNELS 3 Zrotation Xrotation Yrotation
        JOINT left_clavicle
        {
          OFFSET 13.16364 1.694482 -4.693211
          CHANNELS 3 Zrotation Xrotation Yrotation
          JOINT left_humerus
          {
            OFFSET 29.39168 -1.063119 -2.237045
            CHANNELS 3 Zrotation Xrotation Yrotation
            JOINT left_radius
            {
              OFFSET 24.59957 -0.9528479 0.9047498
              CHANNELS 3 Zrotation Xrotation Yrotation
              End Site
              {
                OFFSET 15 -0 -0
              }
            }
          }
        }
      }
    }
  }
}
MOTION
Frames: 21
Frame Time: 0.0416666666667
35.60145 101.1872 248.0741 1.965791 -8.44367 -5.094234 -0.6788029 24.73284 8.688065 -0 14.53598 -0 7.722146 -16.10037 0.9736597 -0.05606809 -28.10305 -5.728163 -0 25.56675 -0 -7.961506 -5.565163 19.83981 -1.087687 -0.4947973 9.825838 -2.08799 9.797581 -1.928354 2.446139 21.70931 5.024441 1.700647 -14.71514 7.061021 0.9989176 -22.26348 11.52774 79.4159 21.84755 -3.372666 -0 0 28.45404 -25.89655 13.94658 13.9883 4.799969 -13.73952 -2.557338 -93.99286 21.26294 26.6818 0 0 -11.05351 -2.999366 6.831175 16.24838
36.42751 100.5422 255.3666 2.179358 -8.138854 -5.664606 -1.85329 25.37266 8.566726 -0 20.09322 -0 8.639068 -14.17313 0.8650674 -1.635953 -26.25376 -7.19198 -0 25.00694 -0 -8.014739 -5.570041 19.23731 -1.464766 -1.291328 9.837146 -2.239165 9.323201 -1.923341 2.607672 21.72442 4.986362 1.594454 -14.72029 7.30872 0.8910846 -21.9144 11.07346 79.74969 21.55845 -3.303233 -0 0 28.28427 -25.88368 13.76067 13.9587 4.521095 -12.80167 -2.589818 -94.12482 21.58402 27.10944 0 0 -9.662931 -3.34426 6.815792 16.84916
37.22022 100.507 262.9929 2.532638 -8.169832 -5.931005 -3.129418 25.00205 8.136854 -0 27.04017 -0 9.337082 -11.44141 0.1905255 -3.251521 -23.3038 -8.542835 -0 25.64847 -0 -8.054167 -5.683396 18.68138 -2.033063 -2.1066 9.777812 -2.277769 9.024987 -1.930305 2.748513 21.87548 4.970404 1.489337 -14.65482 7.56975 1.030988 -21.02618 10.64433 80.48542 21.51651 -4.099496 -0 0 26.98996 -25.65902 13.68045 13.64493 4.311331 -12.16464 -2.652995 -93.86684 21.99548 26.8072 0 0 -8.8662 -3.54689 6.891344 17.22255
37.93475 101.1628 270.4852 2.871665 -8.530502 -5.650863 -3.965409 23.00551 7.32025 -0 35.38088 -0 9.711483 -8.666204 -1.039162 -4.830438 -19.25559 -9.640061 -0 26.50631 -0 -7.913693 -6.454721 18.10123 -2.590599 -2.500981 9.408495 -2.247529 8.898721 -2.002756 2.809457 22.18536 4.989149 1.340272 -14.52057 7.823025 1.4236 -19.84451 10.34711 81.55 21.7334 -5.514565 -0 0 24.77562 -25.19183 13.70406 13.07117 4.124357 -12.05447 -2.765598 -93.0404 22.51135 25.57826 0 0 -8.798099 -3.52708 7.082958 17.26531
38.57702 102.3525 277.5453 3.090307 -9.162975 -4.876123 -4.046926 18.94276 6.249822 -0 44.19237 -0 9.75991 -6.610765 -2.700969 -6.143426 -14.11143 -10.42442 -0 26.85916 -0 -7.594143 -7.842541 17.47745 -2.955774 -2.301499 8.604841 -2.17658 8.891139 -2.209852 2.720621 22.61706 5.089134 1.105898 -14.30582 8.069102 1.96288 -18.62577 10.21523 82.85071 22.1744 -7.248941 -0 0 22.07695 -24.49829 13.80766 12.34854 3.942517 -12.47261 -2.954488 -91.6458 23.08995 23.40352 0 0 -9.410234 -3.256905 7.387559 16.97693
39.11515 103.9126 284.0623 3.014389 -9.943616 -3.995467 -3.59134 12.8868 5.043211 -0 51.17885 -0 9.502806 -5.902036 -4.411965 -6.831137 -8.301994 -10.86422 -0 26.18018 -0 -7.285572 -9.358557 16.84799 -3.029543 -1.612506 7.411534 -2.004983 8.91927 -2.598312 2.503105 23.128 5.279091 0.8025108 -13.99889 8.329213 2.471392 -17.53188 10.20431 84.28875 22.74851 -9.073731 -0 0 19.3825 -23.6407 13.94919 11.61237 3.824264 -13.25274 -3.247696 -89.85367 23.6501 20.44397 0 0 -10.57549 -2.766774 7.786467 16.41364
39.55856 105.6235 290.0599 2.71714 -10.48649 -3.10915 -2.854933 5.706352 3.880605 -0 54.39527 -0 8.939173 -6.116488 -5.729741 -6.942177 -2.392513 -11.08129 -0 24.48078 -0 -7.137238 -10.66124 16.16755 -2.894948 -0.8444141 5.95211 -1.71196 8.88376 -3.243802 2.298241 23.67126 5.490779 0.5099804 -13.61048 8.626887 2.690784 -16.52135 10.1189 85.86253 23.31503 -10.95018 -0 0 17.08887 -22.70839 14.05298 10.96893 3.872343 -14.18589 -3.606927 -87.89773 24.11783 16.9601 0 0 -12.20508 -2.120006 8.262094 15.62755
39.94241 107.0853 295.6717 2.447936 -10.53444 -2.069196 -2.136652 -1.435207 2.987435 -0 53.2525 -0 8.084307 -6.374736 -6.617044 -6.740585 3.029682 -11.26557 -0 22.06017 -0 -7.128873 -11.8156 15.35962 -2.747644 -0.3394011 4.45397 -1.339176 8.690914 -4.147515 2.222546 24.14345 5.643002 0.2952383 -13.19561 8.943438 2.443616 -15.48861 9.783665 87.47741 23.75204 -12.90549 -0 0 15.30494 -21.78743 14.05317 10.44218 4.184665 -15.13977 -3.944953 -85.92622 24.46128 13.18997 0 0 -14.25912 -1.376346 8.80011 14.6316
40.2355 107.9342 301.0024 2.315067 -10.17766 -0.8775449 -1.8166 -7.998178 2.456124 -0 48.04428 -0 6.969683 -6.464342 -7.235188 -6.415971 7.771239 -11.47735 -0 19.43838 -0 -7.162077 -13.05591 14.44653 -2.750084 -0.05456908 3.137511 -0.9116068 8.329554 -5.18358 2.323195 24.47678 5.65129 0.1925842 -12.81325 9.198368 1.821959 -14.43607 9.23516 88.90425 24.02351 -14.87311 -0 0 13.85398 -20.91557 13.93152 9.9573 4.749682 -16.13573 -4.216332 -83.96689 24.6862 9.280672 0 0 -16.64692 -0.5660166 9.386627 13.42428
40.44849 108.0393 306.4559 2.404584 -9.5478 0.3900121 -1.96086 -13.63857 2.223802 -0 39.97361 -0 5.692261 -6.524959 -7.820946 -6.175903 11.96053 -11.65404 -0 17.25036 -0 -7.162801 -14.49577 13.50198 -2.983569 0.02114899 2.066873 -0.475981 7.870932 -6.210942 2.5776 24.62362 5.479831 0.1978852 -12.55589 9.322972 1.032151 -13.30667 8.621468 90.07329 24.15294 -16.84172 -0 0 12.45709 -20.07011 13.71155 9.406667 5.476347 -17.14913 -4.402349 -82.09009 24.79766 5.43132 0 0 -19.20478 0.3092798 10.01545 12.04365
40.56109 107.429 312.1264 2.673619 -8.812973 1.478731 -2.462224 -18.21448 2.037547 -0 30.56557 -0 4.292829 -6.891623 -8.40905 -6.098958 15.65607 -11.7112 -0 15.96037 -0 -7.130258 -16.06984 12.59901 -3.377465 -0.02394835 1.365057 -0.09035366 7.40823 -6.964407 2.897045 24.60568 5.176482 0.2707377 -12.46662 9.302566 0.3043324 -12.11253 8.147838 91.01364 24.20795 -18.72588 -0 0 10.88272 -19.18654 13.44312 8.697 6.250438 -18.14976 -4.442498 -80.40658 24.79458 1.854521 0 0 -21.73596 1.25185 10.66447 10.57222
40.51073 106.3128 317.7997 2.946188 -8.172995 2.126648 -2.933017 -21.8264 1.55189 -0 21.56267 -0 2.815028 -7.748524 -8.934103 -6.107773 18.80592 -11.58171 -0 15.81571 -0 -7.124463 -17.53656 11.83486 -3.750683 0.01866723 1.078886 0.2482256 6.982769 -7.274156 3.170546 24.51559 4.846452 0.3577592 -12.52245 9.178579 -0.1204576 -10.99784 7.959441 91.75661 24.2606 -20.36893 -0 0 9.034375 -18.19125 13.16776 7.785052 6.915704 -19.16789 -4.341508 -78.96135 24.69172 -1.297568 0 0 -23.96895 2.236373 11.29703 9.112408
40.28949 104.997 323.5865 3.04601 -7.621842 2.297912 -2.834706 -24.19799 0.9507066 -0 14.64739 -0 1.348002 -8.934825 -9.40772 -6.050463 21.32612 -11.33593 -0 16.94752 -0 -7.228443 -18.5246 11.28483 -3.930895 0.1635883 0.9969196 0.5500412 6.628647 -7.260508 3.362621 24.4325 4.532274 0.4384036 -12.68817 8.981985 -0.2066945 -10.06201 8.028446 92.32986 24.35302 -21.63978 -0 0 7.069809 -17.08819 12.9106 6.755517 7.373536 -20.11361 -4.132301 -77.87618 24.54485 -3.752367 0 0 -25.61799 3.188259 11.87795 7.782297
39.88629 103.7638 329.7483 2.84449 -7.316058 2.38869 -2.004826 -25.18635 0.7569842 -0 11.47591 -0 0.05383388 -9.736008 -9.873032 -5.592163 23.2946 -11.19386 -0 19.59793 -0 -7.515281 -18.63143 10.99144 -3.773415 0.136613 0.9144611 0.7978677 6.341277 -7.066336 3.539079 24.36443 4.245646 0.5370887 -12.98077 8.788699 -0.07513876 -9.204352 8.251828 92.84203 24.46187 -22.54 -0 0 5.236305 -15.91289 12.67855 5.731965 7.529111 -20.74799 -3.873169 -77.36599 24.46665 -5.209391 0 0 -26.39676 4.009908 12.39208 6.700834
39.28869 102.8787 336.4296 2.36773 -7.217752 2.75776 -0.5429909 -24.38898 1.512707 -0 12.26966 -0 -0.9726228 -9.595576 -10.04243 -4.651979 24.52639 -11.20423 -0 24.11117 -0 -7.950574 -17.50061 11.09183 -3.27219 -0.2450938 0.645285 0.997185 6.245837 -6.8974 3.686255 24.45079 3.939542 0.6566317 -13.24936 8.523694 0.1294181 -8.487671 8.430446 93.25441 24.55864 -22.9816 -0 0 3.848948 -14.78077 12.44249 4.870483 7.433751 -20.81092 -3.581807 -77.58893 24.56578 -5.492635 0 0 -26.11788 4.600752 12.8457 5.973291
38.5676 102.5641 343.4817 1.674307 -7.420842 2.862438 1.102021 -21.99323 2.717589 -0 14.86641 -0 -1.865865 -9.185155 -9.931309 -3.615246 24.5403 -11.18221 -0 30.66831 -0 -8.321419 -15.33404 11.81962 -2.56458 -0.7394943 0.3526051 1.134786 6.356496 -6.786091 3.784764 24.69747 3.62136 0.788628 -13.43796 8.17698 0.295674 -8.109817 8.506342 93.35059 24.66305 -22.81921 -0 0 3.1316 -13.84544 12.16608 4.302217 7.178206 -20.2939 -3.265627 -78.52742 24.85124 -4.542707 0 0 -24.71262 4.89195 13.24564 5.660106
37.76818 102.9067 350.7398 1.02623 -8.320524 2.256155 2.518103 -18.25187 3.785801 -0 17.51878 -0 -2.75093 -9.33138 -9.656226 -2.686177 22.60439 -11.04758 -0 38.8359 -0 -8.253601 -13.17489 13.33439 -1.945414 -0.9003292 0.4194135 1.227615 6.767806 -6.56031 3.853616 25.11664 3.322675 0.9410147 -13.56075 7.810112 0.5243152 -8.187533 8.602433 92.97609 24.80672 -21.98919 -0 0 3.07599 -13.17066 11.84225 4.044681 6.707855 -19.40139 -3.019785 -80.06435 25.25168 -2.557595 0 0 -22.28949 4.851488 13.59798 5.743089
36.95237 103.655 357.5684 0.5359059 -9.644418 1.128214 3.613257 -13.48153 4.37096 -0 18.96334 -0 -3.582894 -10.21679 -9.276859 -2.442842 18.53181 -10.51824 -0 47.15038 -0 -7.844125 -11.40121 15.33375 -1.598552 -0.4832162 0.9101268 1.300029 7.321782 -6.183488 3.91185 25.64054 3.0542 1.116656 -13.58785 7.454475 0.8487808 -8.908786 8.837037 91.98079 25.0204 -20.38819 -0 0 3.612124 -12.82576 11.46105 4.096359 6.068878 -18.51575 -2.984478 -81.93599 25.64922 -0.05778275 0 0 -19.20364 4.516266 13.90807 6.118957
36.178 104.6889 363.874 0.3521109 -10.83442 -0.1583044 4.140629 -7.995231 4.498395 -0 18.70134 -0 -4.244625 -11.40912 -8.762398 -2.764158 12.94261 -9.779764 -0 54.25789 -0 -7.373226 -9.857587 17.45436 -1.613044 0.1551626 1.752601 1.255184 7.825825 -5.640063 4.014474 26.15777 2.796915 1.334957 -13.5551 7.13066 1.169103 -9.986277 9.139455 90.6132 25.22091 -18.29221 -0 0 4.533864 -12.82978 11.02927 4.422125 5.402302 -17.77996 -3.043381 -84.01316 25.93082 2.723341 0 0 -15.86607 3.988236 14.17727 6.634449
35.47633 105.9059 369.666 0.5340131 -11.65432 -1.377602 3.97534 -2.235282 4.396603 -0 16.91274 -0 -4.701638 -12.45153 -8.00749 -3.275654 6.37826 -9.175068 -0 58.58237 -0 -6.896547 -8.582787 19.30156 -1.947388 0.7770066 2.741489 1.047106 8.12871 -4.956836 4.130262 26.55075 2.611514 1.570556 -13.56093 6.891974 1.373129 -11.14325 9.406462 89.19314 25.32941 -15.96613 -0 0 5.789706 -13.2187 10.56499 5.061427 4.910301 -17.19056 -3.068438 -86.19045 26.00153 5.677057 0 0 -12.64634 3.404247 14.40229 7.129658
34.8459 106.9477 374.928 0.8102903 -11.93658 -2.677853 3.421421 3.21053 4.146045 -0 14.0783 -0 -5.028548 -13.27748 -6.972216 -3.672555 -0.6286638 -8.915086 -0 58.11201 -0 -6.368941 -7.842609 20.61688 -2.317655 1.322707 3.685691 0.7055096 8.147175 -4.141022 4.13191 26.74557 2.568247 1.753358 -13.64815 6.719573 1.304522 -12.458 9.648403 87.64849 25.35803 -13.37796 -0 0 7.548987 -14.08083 10.08917 6.123244 4.768886 -16.6609 -2.986727 -88.35199 25.81339 8.7232 0 0 -9.762822 2.883223 14.58598 7.495438
